HIERARCHY
ROOT Hips
{
	OFFSET -14.64140 90.27770 -84.91600
	CHANNELS 6 Xposition Yposition Zposition Zrotation Xrotation Yrotation
	JOINT Spine
	{
		OFFSET 0.00000 13.20850 -1.60436
		CHANNELS 3 Zrotation Xrotation Yrotation
		JOINT Spine1
		{
			OFFSET 0.00000 8.61716 0.00000
			CHANNELS 3 Zrotation Xrotation Yrotation
			JOINT Spine2
			{
				OFFSET 0.00000 8.61717 0.00000
				CHANNELS 3 Zrotation Xrotation Yrotation
				JOINT Spine3
				{
					OFFSET 0.00000 8.61717 0.00000
					CHANNELS 3 Zrotation Xrotation Yrotation
					JOINT Neck
					{
						OFFSET 0.00000 11.07920 1.10792
						CHANNELS 3 Zrotation Xrotation Yrotation
						JOINT Neck1
						{
							OFFSET 0.00000 7.08032 0.00000
							CHANNELS 3 Zrotation Xrotation Yrotation
							JOINT Head
							{
								OFFSET 0.00000 7.08031 0.00000
								CHANNELS 3 Zrotation Xrotation Yrotation
								End site
								{
									OFFSET 0.00000 0.00000 0.00000
								}
							}
						}
					}
					JOINT RightShoulder
					{
						OFFSET -0.01000 7.91373 5.19711
						CHANNELS 3 Zrotation Xrotation Yrotation
						JOINT RightArm
						{
							OFFSET -18.41580 0.00000 0.00000
							CHANNELS 3 Zrotation Xrotation Yrotation
							JOINT RightForeArm
							{
								OFFSET -29.11090 0.00000 0.00000
								CHANNELS 3 Zrotation Xrotation Yrotation
								JOINT RightHand
								{
									OFFSET -24.65040 0.00000 0.00000
									CHANNELS 3 Zrotation Xrotation Yrotation
									JOINT RightHandThumb1
									{
										OFFSET -5.35114 -0.85590 3.97906
										CHANNELS 3 Zrotation Xrotation Yrotation
										JOINT RightHandThumb2
										{
											OFFSET -4.52789 0.00000 0.00000
											CHANNELS 3 Zrotation Xrotation Yrotation
											JOINT RightHandThumb3
											{
												OFFSET -2.46976 0.00000 0.00000
												CHANNELS 3 Zrotation Xrotation Yrotation
												End site
												{
													OFFSET 0.00000 0.00000 0.00000
												}
											}
										}
									}
									JOINT RightHandIndex1
									{
										OFFSET -14.26970 0.00000 2.88139
										CHANNELS 3 Zrotation Xrotation Yrotation
										JOINT RightHandIndex2
										{
											OFFSET -5.48836 0.00000 0.00000
											CHANNELS 3 Zrotation Xrotation Yrotation
											JOINT RightHandIndex3
											{
												OFFSET -3.01859 0.00000 0.00000
												CHANNELS 3 Zrotation Xrotation Yrotation
												End site
												{
													OFFSET 0.00000 0.00000 0.00000
												}
											}
										}
									}
									JOINT RightHandMiddle1
									{
										OFFSET -14.26970 0.00000 -0.09147
										CHANNELS 3 Zrotation Xrotation Yrotation
										JOINT RightHandMiddle2
										{
											OFFSET -6.17441 0.00000 0.00000
											CHANNELS 3 Zrotation Xrotation Yrotation
											JOINT RightHandMiddle3
											{
												OFFSET -3.56743 0.00000 0.00000
												CHANNELS 3 Zrotation Xrotation Yrotation
												End site
												{
													OFFSET 0.00000 0.00000 0.00000
												}
											}
										}
									}
									JOINT RightHandRing1
									{
										OFFSET -12.69180 0.00000 -3.06433
										CHANNELS 3 Zrotation Xrotation Yrotation
										JOINT RightHandRing2
										{
											OFFSET -5.62556 0.00000 0.00000
											CHANNELS 3 Zrotation Xrotation Yrotation
											JOINT RightHandRing3
											{
												OFFSET -3.56744 0.00000 0.00000
												CHANNELS 3 Zrotation Xrotation Yrotation
												End site
												{
													OFFSET 0.00000 0.00000 0.00000
												}
											}
										}
									}
									JOINT RightHandPinky1
									{
										OFFSET -11.11390 0.00000 -6.03719
										CHANNELS 3 Zrotation Xrotation Yrotation
										JOINT RightHandPinky2
										{
											OFFSET -4.52789 0.00000 0.00000
											CHANNELS 3 Zrotation Xrotation Yrotation
											JOINT RightHandPinky3
											{
												OFFSET -2.46976 0.00000 0.00000
												CHANNELS 3 Zrotation Xrotation Yrotation
												End site
												{
													OFFSET 0.00000 0.00000 0.00000
												}
											}
										}
									}
								}
							}
						}
					}
					JOINT LeftShoulder
					{
						OFFSET 0.01000 7.91373 5.19711
						CHANNELS 3 Zrotation Xrotation Yrotation
						JOINT LeftArm
						{
							OFFSET 18.41580 0.00000 0.00000
							CHANNELS 3 Zrotation Xrotation Yrotation
							JOINT LeftForeArm
							{
								OFFSET 29.11090 0.00000 0.00000
								CHANNELS 3 Zrotation Xrotation Yrotation
								JOINT LeftHand
								{
									OFFSET 24.65040 0.00000 0.00000
									CHANNELS 3 Zrotation Xrotation Yrotation
									JOINT LeftHandThumb1
									{
										OFFSET 5.35114 -0.85590 3.97906
										CHANNELS 3 Zrotation Xrotation Yrotation
										JOINT LeftHandThumb2
										{
											OFFSET 4.52789 0.00000 0.00000
											CHANNELS 3 Zrotation Xrotation Yrotation
											JOINT LeftHandThumb3
											{
												OFFSET 2.46977 0.00000 0.00000
												CHANNELS 3 Zrotation Xrotation Yrotation
												End site
												{
													OFFSET 0.00000 0.00000 0.00000
												}
											}
										}
									}
									JOINT LeftHandIndex1
									{
										OFFSET 14.26970 0.00000 2.88139
										CHANNELS 3 Zrotation Xrotation Yrotation
										JOINT LeftHandIndex2
										{
											OFFSET 5.48836 0.00000 0.00000
											CHANNELS 3 Zrotation Xrotation Yrotation
											JOINT LeftHandIndex3
											{
												OFFSET 3.01859 0.00000 0.00000
												CHANNELS 3 Zrotation Xrotation Yrotation
												End site
												{
													OFFSET 0.00000 0.00000 0.00000
												}
											}
										}
									}
									JOINT LeftHandMiddle1
									{
										OFFSET 14.26970 0.00000 -0.09147
										CHANNELS 3 Zrotation Xrotation Yrotation
										JOINT LeftHandMiddle2
										{
											OFFSET 6.17440 0.00000 0.00000
											CHANNELS 3 Zrotation Xrotation Yrotation
											JOINT LeftHandMiddle3
											{
												OFFSET 3.56744 0.00000 0.00000
												CHANNELS 3 Zrotation Xrotation Yrotation
												End site
												{
													OFFSET 0.00000 0.00000 0.00000
												}
											}
										}
									}
									JOINT LeftHandRing1
									{
										OFFSET 12.69180 0.00000 -3.06433
										CHANNELS 3 Zrotation Xrotation Yrotation
										JOINT LeftHandRing2
										{
											OFFSET 5.62556 0.00000 0.00000
											CHANNELS 3 Zrotation Xrotation Yrotation
											JOINT LeftHandRing3
											{
												OFFSET 3.56744 0.00000 0.00000
												CHANNELS 3 Zrotation Xrotation Yrotation
												End site
												{
													OFFSET 0.00000 0.00000 0.00000
												}
											}
										}
									}
									JOINT LeftHandPinky1
									{
										OFFSET 11.11390 0.00000 -6.03719
										CHANNELS 3 Zrotation Xrotation Yrotation
										JOINT LeftHandPinky2
										{
											OFFSET 4.52789 0.00000 0.00000
											CHANNELS 3 Zrotation Xrotation Yrotation
											JOINT LeftHandPinky3
											{
												OFFSET 2.46976 0.00000 0.00000
												CHANNELS 3 Zrotation Xrotation Yrotation
												End site
												{
													OFFSET 0.00000 0.00000 0.00000
												}
											}
										}
									}
								}
							}
						}
					}
					JOINT pCube4
					{
						OFFSET 0.00000 10.91090 1.10792
						CHANNELS 3 Zrotation Xrotation Yrotation
						End site
						{
							OFFSET 0.00000 0.00000 0.00000
						}
					}
				}
			}
		}
	}
	JOINT RightUpLeg
	{
		OFFSET -9.98441 0.00000 0.00000
		CHANNELS 3 Zrotation Xrotation Yrotation
		JOINT RightLeg
		{
			OFFSET 0.00000 -42.11790 0.00000
			CHANNELS 3 Zrotation Xrotation Yrotation
			JOINT RightFoot
			{
				OFFSET 0.00000 -45.00020 -0.00001
				CHANNELS 3 Zrotation Xrotation Yrotation
				JOINT RightForeFoot
				{
					OFFSET 0.00000 -3.74820 0.00000
					CHANNELS 3 Zrotation Xrotation Yrotation
					JOINT RightToeBase
					{
						OFFSET 0.00000 0.06325 14.43120
						CHANNELS 3 Zrotation Xrotation Yrotation
						End site
						{
							OFFSET 0.00000 0.00000 0.00000
						}
					}
				}
			}
		}
	}
	JOINT LeftUpLeg
	{
		OFFSET 9.98441 0.00000 0.00000
		CHANNELS 3 Zrotation Xrotation Yrotation
		JOINT LeftLeg
		{
			OFFSET 0.00000 -42.11800 0.00000
			CHANNELS 3 Zrotation Xrotation Yrotation
			JOINT LeftFoot
			{
				OFFSET 0.00000 -45.00070 0.00000
				CHANNELS 3 Zrotation Xrotation Yrotation
				JOINT LeftForeFoot
				{
					OFFSET 0.00000 -3.74824 0.00000
					CHANNELS 3 Zrotation Xrotation Yrotation
					JOINT LeftToeBase
					{
						OFFSET 0.00000 0.06325 14.43110
						CHANNELS 3 Zrotation Xrotation Yrotation
						End site
						{
							OFFSET 0.00000 0.00000 0.00000
						}
					}
				}
			}
		}
	}
}
MOTION
Frames: 4
Frame Time: 0.050000
-0.003653795112420931 0.022813138709363624 0.02455161252837272 -0.03533222267584835 0.03703867031088145 -0.013568106480749076 -4.630944907239373 8.037910659741428 -0.5850717169178965 -0.6827779348363455 2.9465723992751456 0.428616681506817 -1.0044444278677807 0.23123562596174008 -1.2563989183132203 -0.7036982668362579 0.3179989732887023 -0.9914400609697313 -0.15418981224882894 7.437372148351071 0.1506119019736578 -0.14178230014875848 -1.3606583446949614 -3.1557186804249593 -0.13493709543155957 -15.41774610550292 -0.154338119250214 4.093817678187836 -0.1613442753281321 -9.846404853146147 58.68556561321229 -12.80987107821971 25.77599806999524 29.277684831726525 9.30886393940598 101.43199469576422 24.88928930316603 -0.08528907458246712 -10.747284612639103 4.493925317913906 -0.09283777202678274 -1.6207160803826457 -0.025132814420572823 -0.02032745439547929 -56.235552847880335 -0.024694281636914256 0.014026887938953791 -56.22745473475307 -38.7335413609838 -0.014588651379217452 0.008806420942271456 0.014199592759567801 0.029252041802412528 0.0007741887564804491 0.004487510465710027 0.006219151318921061 -0.04458745295633475 -36.69216423413124 -0.046330508919569385 0.02551100724870511 -0.02900082517938992 0.029250286339820568 -0.024571467609526554 0.044730053504871324 0.030724100413375092 0.03556556313583998 -19.72307293188911 -0.044005855003137646 0.024025040349537747 0.019780518174881082 -0.03027882634563395 -0.006866269084836761 -0.001399082052485652 0.000795999300973211 -0.0439133090442889 24.029351469684258 -0.006103409767756446 -0.004315440181829874 28.894728549335937 0.00017399959303460012 -0.04548021103673875 28.84523667546483 0.03358941470136063 0.003623824123264407 -3.5203765389446007 -0.14157420748384789 8.538116931135812 -60.63438144814994 18.784132012280246 -20.628752406896467 -44.749268441347084 9.667779014801148 -100.24907206069584 -12.66398853180758 2.8122212750063484 -1.7262637390554962 -0.45139587381053486 0.10946653933664907 -8.08776244390345 0.016785992379629175 0.04198808047525334 44.602722595893304 0.03936088012848842 -0.007623614305576423 44.5934976220584 12.478720927935408 -0.031381908781598106 -0.033380036973275254 0.030124740788973862 -0.03559893179409184 0.025091763868716505 0.010217444118329092 0.01941695659195705 0.006300591204000446 11.103141206385429 -0.00040733826036720835 -0.023004425643592834 -0.0263917923303232 0.0036663361499748386 -0.011418357723733872 0.013277948133970922 0.00882675975994739 0.04754404672949433 4.790350713684153 -0.03283735654042688 0.006936254186335525 -0.039260901370410266 -0.03631570796275605 -0.007450688636659801 0.014587243902259206 0.00193344387699763 -0.024449676685963134 -5.596863536539773 0.0491751142269141 0.03370721780086625 -6.717438787048268 -0.010173534683566703 -0.038157281521932845 -6.73891448983366 -0.02740260855404841 0.004956102098597992 0.009227925526935408 0.044118105996375986 -0.034470045208716465 8.030097714231811 3.4850643553940985 -19.245888511935597 0.0005370332487719366 10.349187952485448 -0.023418845309260455 -5.639759041531976 -15.705478870846147 3.201483105566459 0.041952852797390125 0.027850559361946477 0.03267903083422559 -0.0019102132028447395 4.658708907045683 -0.013243009225817457 12.477133385564272 -8.197894380249622 6.878785441483424 0.01679358783503627 46.36095028393064 -0.048076125145448845 -4.352824656060112 -14.759966676380627 -3.874691004284266 -0.018464618479260158 0.008739681729300848 -0.028147544228168696 0.04812884320074958 -10.747904182158566 -0.013710226669836616 
-0.029001704783564636 0.019502041824788697 -0.022811784108236192 -0.019894133060053124 -0.03414361008455804 -0.02649282669809537 -4.4956788896044895 7.940779354070087 -0.584239145098736 -0.6999420430998664 2.9256972842983955 0.3495105932428458 -0.9965374000089984 0.20666254553169353 -1.4458426139184115 -0.5927034469079755 0.28709218741040793 -1.026442488385547 -0.04468372009411207 7.606719997544574 -0.1132183392951633 -0.11991996809712999 -1.3213002971278474 -3.4979668891539455 -0.043424546464502514 -15.28126723695711 -0.21663160880959403 3.833619879246319 -0.12208769558408467 -9.766995711768958 56.487180256262675 -13.804894304888142 28.109795481450043 29.785047934436 9.743414015933283 100.67063773632404 25.217437969426246 -0.02087863851361861 -11.075483862228959 4.5423132854134 -0.1733842775356574 -1.5944309050255083 -0.029504311727138053 0.01831344788419707 -56.20932210629392 -0.03257838186975047 -0.049095539755618776 -56.229320491580715 -38.74267295193267 0.006188452099516368 0.027075773518542907 0.023040189387861565 0.042213176103257165 0.02816289004436603 -0.02743474323477607 0.020734908278488538 0.03393869398588594 -36.6454147706144 0.03882541995199234 0.006195920151475768 0.029279796021758776 0.04444860314751743 -0.031116230343849947 -0.03060592591305217 0.030616596192689607 -0.01823902067158885 -19.73415705940562 -0.026727601776523793 0.01751433026568358 0.01860290262119363 0.006319531422226173 0.029088238723476722 0.00833318259521078 0.011446317138464973 -0.021202438037601776 24.061455403317336 -0.0444763766100546 -0.01327196829070592 28.88031985595666 -0.009095807472259845 0.022344338580638706 28.872338808403754 0.020702346307688146 0.026577879204277486 -3.278018722065347 -0.10025799896995807 8.274219263475308 -58.62633974457978 19.925960998854535 -22.983723301575044 -41.87540723709373 9.207907880738883 -100.09739255712397 -13.179462792574656 2.5918821543521946 -1.855641111384439 -0.5241722387237467 0.03753089131437316 -8.156309232071077 -0.024663798160854483 -0.025171153828300253 44.52744932509082 0.005450143496082423 -0.0006504627653306749 44.609272566965 12.421869201842096 0.013234054275656902 0.040323759971527526 -0.00817127025218204 0.01951018075794415 -0.010669974259188647 0.04451624073825317 -0.0114438340416165 0.045267880888772295 11.079898119478411 -0.016589272841676113 -0.03100691996945703 0.027093432425045517 -0.04876702955286988 -0.021836770332195683 -0.017051757117306502 0.04798055338761535 -0.0029386668056218986 4.753288083584006 -0.002429302660765315 0.016600587307840465 -0.03679264288512623 0.038442794601526525 0.005630031728007729 -0.0028152415285976635 0.02453301790194877 -0.0445721036562742 -5.557218943557984 0.036330548875180314 0.04624970905121492 -6.735424404341343 -0.024529580366432907 0.02561399528922339 -6.717483413310446 0.027293656459743566 0.008050450257773855 -0.04386258696787499 0.025841557781508203 0.012189391943104866 8.082184455205367 3.4975636368323553 -19.231199930381866 0.0405914950693118 10.425879951396256 0.020101729483601713 -5.665207782894873 -15.694549797388122 3.184327639627617 0.007008229125505047 0.019130269131275243 -0.013244803326627275 -0.01644329937889524 4.665365593509253 -0.0027525870599199383 12.427804117370313 -8.242588982415235 6.8917886875747145 -0.02909205585528094 46.35445167583543 0.04280366151883131 -4.34146510329369 -14.748752815262865 -3.8193890932628096 -0.04247769309557805 -0.02400083098911419 -0.003775407279488583 -0.0073492066454996716 -10.745286125749882 0.016360341813629487 
-0.04600676183748863 -0.04111000395973266 0.0488996027131658 -0.029570868617477736 -0.013376768326790836 -0.03944344852479512 -4.383442883339132 7.77666411586323 -0.5567862119598943 -0.6623075540839929 2.9644054794131205 0.3395081631159809 -1.0181896609236631 0.17546425902656224 -1.6971267759113966 -0.4794234985004839 0.21510760058504907 -1.105134818291397 0.03186349692001266 7.718679929166284 -0.31652603891900444 -0.11464654253786112 -1.1968123522562137 -3.662071743039984 0.03875953653589814 -15.134078753264077 -0.22146903976407128 3.5254420638422057 -0.04069484014025981 -9.688432011340549 54.35221699623863 -14.617233512393232 30.489109982195806 30.26556857680504 10.170999424264084 99.34377185191003 25.56389070200741 -0.04733838192615214 -11.494281516707876 4.513884956056904 -0.07806160992975184 -1.6370821384881717 0.04677210424358933 0.03969000519069485 -56.22154964906834 -0.011931333412276835 -0.04462093443957149 -56.28307540418674 -38.74005277925173 0.018533384492894107 -0.01849691831636819 -0.0006085651172930165 -0.02252862667385712 -0.020015593307767705 -0.012909315948679972 0.04156310320916866 -0.00020407471721031606 -36.740902549947094 -0.015791993577364834 0.024429167609877955 0.006946760432427434 0.014840817121016784 -0.01120895387237331 -0.03769458374421435 -0.003322283700912862 -0.04281838873688277 -19.75685455526698 -0.030449131587101243 0.028805308119215212 -0.017973817685959983 -0.020905852217831526 -0.026607572923466213 0.04328592718832086 -0.04638108374625746 -0.013866473444244513 24.048453409816616 -0.006406417666736066 -0.007541232834251069 28.884157026306998 -0.03540502896081954 0.018003993008893868 28.88041747261485 -0.0002972660199122445 0.04173821259494559 -2.984874885480546 -0.02048135661990696 7.9698405069433145 -56.4637456212677 20.939487658985435 -25.71223791425815 -37.33951628004393 8.187720566177399 -99.07389213060802 -14.03867975203008 2.086288102011812 -1.8044326311768637 -0.49647513819918165 0.03467844117986778 -8.160012286702795 -0.004502347386726922 -0.019841412358326004 44.605226144240206 0.03773940148903417 0.02342524625983989 44.5376725240774 12.430196870018886 0.017456075345466292 0.024126491850124096 -0.006220464449112671 0.04727409892471634 0.02175823984093186 -0.024348652824646214 -0.015719980439102277 -0.03417185805246521 11.144875075705047 -0.04201185389056834 0.0039320046949684094 0.03977825190578554 0.025175321929961452 -0.02620608740061435 0.04109283582554138 -0.04548142116575476 0.04494236927456014 4.74494925996372 0.03303076081756318 -0.006429431235350987 -0.010326898519251821 -0.005958563862505877 0.006267502785273834 -0.03642474080398183 -0.02479190593306848 -0.028091478221864405 -5.597670063931995 0.00266193320567856 0.0038855470920698904 -6.702621865995527 0.045286017608119754 -0.010255262874449413 -6.684979382043199 -0.010371330184239374 -0.03459568819520147 0.013004315336616896 0.037741946198955864 -0.017573849430906813 8.034716553145017 3.5336112978412966 -19.258570139104943 -0.03182870784638706 10.41162652126193 0.04381365868579942 -5.579215352586195 -15.668903205940902 3.238253007471536 0.005084941846978264 0.014954867672235748 -0.04211608308948179 0.024545590190241072 4.670291373690599 0.03784565749107944 12.455884513010595 -8.261545518278783 6.860478943016608 0.04069065309775443 46.37114823549037 0.027584052956130454 -4.303708438564136 -14.69936316585852 -3.788725052143022 0.0039314403388992355 -0.026504877473741563 0.03493868443831448 -0.033562392692541416 -10.745397485484272 0.023003519062593687 
-0.00695613178915222 0.009293973415037996 -0.01311200270802211 0.0335756441614121 -0.017489392827243842 0.010041039761665796 -4.170930503553716 7.698695285100759 -0.5941409983429927 -0.684816368748068 2.983614261391692 0.31968763643543585 -0.9653172454266212 0.15428950315792983 -1.8563987415898375 -0.37722980311867566 0.26500850750107796 -1.1109889962580288 0.03694874573362074 7.815069206111109 -0.4459999968210517 -0.07361378172649032 -1.1052232974408687 -3.827269719025364 0.07364937607601674 -15.10313898791883 -0.21454197432567856 3.2613055352310028 0.026418776188574397 -9.612722813060138 53.21489160090525 -14.997326010871221 32.35700895313485 30.38525252058565 10.537646253325338 97.28814996123886 25.92120529750115 -0.022010822287913488 -11.759250416160754 4.526198158529854 -0.13540913704728816 -1.6280255834462647 -0.020354592819985556 0.02743237692920815 -56.230596767414575 -0.006932588837321748 0.006277425854797261 -56.19152513105805 -38.81043056157031 -0.004511338708314024 -0.0007198049787077527 0.007928857908616627 -0.030986041432376165 0.04500395551900944 0.02380226389844014 0.04528212344085097 -0.022526932573829567 -36.65642456749005 0.01520814557123195 -0.02613554692381313 -0.030779310492817732 -0.016516880985950368 -0.04891278481176452 0.039069715391000674 -0.03376519952909103 -0.007357938344495736 -19.773022565982146 0.018906064895516588 0.012504136457529808 -0.032168400154331506 0.011179639962360214 -0.00822849484664354 0.015913489357246534 0.0358111781094691 -0.01464791123421289 24.077243707116715 0.027055049887878633 -0.012949970977986128 28.856678699764522 0.03554228043395627 -0.018038863517120692 28.87159569133019 -0.025386631459591448 0.03318715522068532 -2.680063273667225 -0.0023806866311911687 7.833001356914445 -54.67931509172536 21.678037299746336 -28.186233479349298 -33.123689398562945 7.1781239571571955 -97.77571066929067 -14.868298393831196 1.6634956764530522 -1.6344572175120744 -0.48973260725100054 0.1034579307124959 -8.127147770115927 0.02329074752564661 0.012224863998663635 44.59218369467837 -0.04846191599923544 0.013387767218745732 44.53375202746678 12.493772059953216 -0.01744964152309367 -0.013662036056609412 -0.00221497631977346 -0.03452212066535143 -0.032121734084866564 0.02142135604698657 -0.029218789840597476 -0.027275422175678687 11.105967488854217 0.038171073042672275 -0.012866753939028931 -0.020024559276616147 -0.008453162704701808 0.018069203668669116 -0.028191429998644754 -0.02740621770706427 0.007119441980478962 4.734874031996654 -0.017526458827164765 -0.035018550559975006 -0.006414411648700276 -0.023871820135833388 0.01320827877511271 0.03969607644799961 0.007023424032381361 0.036294624934052375 -5.650218411150059 0.033088770460107546 -0.007730594595551387 -6.7051441165518835 -0.04426790060748862 0.024137923001852968 -6.720172365298251 0.040172610085920615 -0.003012391725088859 0.031072553875641062 0.025330869171237815 0.029706202767543904 8.050492003410762 3.5240182166923004 -19.23742060430271 0.03296529795195848 10.41746518574454 -0.029171858947820022 -5.629543423742086 -15.621139571401438 3.203887465829489 0.008671691647637923 0.020832838896523303 -0.021884523498553514 0.0009020186912383902 4.667641725983408 -0.043540904789617085 12.457903828158035 -8.269766462399845 6.918265967734378 0.0020592729826480966 46.412301028264785 0.008959644437802571 -4.32181519224304 -14.754255732746028 -3.7877344927112495 0.04713995139011874 -0.02172395096753208 -0.022264097047330865 0.02689012916879088 -10.733022237295897 0.01700236735965385 
